<?xml version="1.0" encoding="UTF-8"?>
<svg id="_レイヤー_1" data-name="レイヤー 1" xmlns="http://www.w3.org/2000/svg" viewBox="0 0 220.96 190.02">
  <defs>
    <style>
      .cls-1 {
        fill: #ec7e8c;
        opacity: .7;
      }

      .cls-1, .cls-2, .cls-3, .cls-4, .cls-5, .cls-6, .cls-7, .cls-8, .cls-9, .cls-10, .cls-11, .cls-12, .cls-13, .cls-14, .cls-15 {
        stroke-width: 0px;
      }

      .cls-2 {
        fill: rgba(236, 126, 140, .7);
      }

      .cls-16 {
        fill: none;
        stroke: #f5ab2d;
        stroke-linecap: round;
        stroke-linejoin: round;
        stroke-width: 5.24px;
      }

      .cls-3 {
        fill: #6535dd;
      }

      .cls-4 {
        fill: #5a207c;
      }

      .cls-5 {
        fill: #2d7ac2;
      }

      .cls-6 {
        fill: #2dadd8;
      }

      .cls-7 {
        fill: #3dbad8;
      }

      .cls-8 {
        fill: #3d9fd8;
      }

      .cls-9 {
        fill: #2dced8;
      }

      .cls-10 {
        fill: #9edbe1;
      }

      .cls-11 {
        fill: #f0f4ed;
      }

      .cls-12 {
        fill: #fff9bb;
      }

      .cls-13 {
        fill: #ffdc42;
      }

      .cls-14 {
        fill: #fcd141;
      }

      .cls-15 {
        fill: #f5ab2d;
      }
    </style>
  </defs>
  <path class="cls-15" d="M192.89,3.94c-2.14-3.15-4.48-3.77-8.16-3.93-2.07-.09-4.14.81-5.65,2.28-1.07,1.05-1.62,3.31.32,6.01,1.54,2.14,5,5.57,6.58,8.62s1.89,6.52,1.89,6.52c.52-.66,1.45-1.23,2.1-1.55,2.61-1.27,2.73.81,2.94.77,2.26-.38-.23.21.55-3.51.14-.68.25-2.6.38-3.11.57-2.29.95-9.32-.95-12.11Z"/>
  <path class="cls-15" d="M220.93,26.96c-.2-2.93-1.84-5-4.2-5.98-6.53-2.71-17.19,1.75-18.6,2.14l-.83.22-.86,1.23s.81,2.28-.34,4.89c4.43-.33,6.3.7,8.1,1.81,4.83,2.99,10.85,5.57,13.33,4.33,2.24-1.12,3.62-5.47,3.4-8.65Z"/>
  <path class="cls-13" d="M214.58,10.91c-.16-4-8.7-13.87-16.18-8.52-2.41,1.72-3.95,10.9-6.15,16.45-.95,2.39-1.44,2.54-.17,3,2.1.75,3.97,2.78,4.7,4.45.56,1.28.89,1.41,3.79-.66,1.96-1.4,8.01-5.58,10.37-7.4,2.15-1.66,3.74-4.69,3.63-7.33Z"/>
  <path class="cls-11" d="M141.9,21.66c21.39,17.46,42.46,11.73,45.34,3.34,2.36-6.86,11.11,2.03,9.19,5.08-1.72,2.74-8.17,12.39-19.93,14.34-8.86,1.47-19.26-2.31-22.18-4.01-2.91-1.69-12.42-18.75-12.42-18.75Z"/>
  <path class="cls-10" d="M197.01,25.6c-1.59-2.51-4.63-4.89-7.35-4.57-1.01.12-2.84.73-3.79,3.5-.6,1.74-2.18,3.32-4.42,4.55,0,0,0,0,0,0h0c-1.12.62-2.4,1.15-3.82,1.56-3.89,1.11-17.92,3.67-34.78-10.1l-5.94-4.85,3.73,6.7c1.62,2.91,9.86,17.5,12.97,19.3,2.42,1.41,10.5,4.54,18.65,4.54,1.51,0,3.02-.11,4.5-.35,11.19-1.85,17.92-10.2,20.94-15.01.84-1.34.59-3.25-.67-5.26ZM184.93,34.87c.81,1.76.6,3.75-.02,4.86-.95.58-1.96,1.11-3.03,1.57.22-1.33.13-2.79-.32-4.21-.49-1.56-1.31-2.88-2.39-3.89.94-.3,1.83-.64,2.66-1.03,1.77.55,2.66,1.74,3.11,2.7ZM146.62,26.91c8.46,5.46,16.05,7.22,21.81,7.52,1.67.81,2.9,3.02,2.99,5.38.06,1.44-.34,2.66-1.07,3.4-6.83-.42-13.34-2.94-15.29-4.07-1.22-.71-4.79-6.09-8.44-12.23ZM176.26,42.97c-.82.14-1.66.21-2.5.26.43-1.04.64-2.24.59-3.53-.08-1.96-.72-3.81-1.74-5.29.9-.06,1.72-.15,2.46-.26,2.46.69,3.4,2.89,3.69,3.81.55,1.76.36,3.6-.48,4.58-.65.17-1.32.32-2.01.43ZM188.38,37.23c-.02-1.22-.27-2.46-.79-3.58-.63-1.36-1.58-2.46-2.78-3.25.47-.35.91-.72,1.31-1.11,1.12-.04,2.35.51,3.32,1.52,1.12,1.17,1.6,2.65,1.38,4.13-.74.78-1.56,1.55-2.44,2.3ZM195.2,29.3c-.49.78-1.08,1.65-1.78,2.58-.37-1.13-.99-2.2-1.86-3.1-.99-1.03-2.19-1.75-3.44-2.13.2-.38.38-.77.52-1.17.49-1.44,1.15-1.51,1.37-1.54,1.29-.16,3.34,1.33,4.54,3.23.75,1.19.77,1.97.67,2.13Z"/>
  <path class="cls-15" d="M51.95,65.01c-10.85-12.99-34.64-25.88-41.69-16.94-4.55,5.76-4.17,18.44,1.09,29.35,3.4,7.06,4.69,13.4,13.11,19.75,8.42,6.36,27.5-32.16,27.5-32.16Z"/>
  <path class="cls-9" d="M48.23,57.35c-3.92-2.31-5.97-4.29-9.87-6.02-8.2-3.65-10.7-7.87-14.21-3.51-5.63,6.99-6.14,19.73-11.46,32.55-4.62,11.14,4.41,8.25,7.92,15.06,6.59,12.78,20.56-6.09,21.92-6.93,19.28-11.91,10.28-28.46,5.71-31.15Z"/>
  <g>
    <path class="cls-15" d="M114.53,161.85c.47,4.79,7.37,6.05,9.83,11.45,1.59,3.48,5.66-1.46,2.36-3.17-6.28-3.25-3.13-6.66-5.36-11.67-1.43-3.2-7.32-1.58-6.83,3.38Z"/>
    <g>
      <path class="cls-16" d="M135.47,181.88c-3.28,1-7.87-3.78-8.95-8.77"/>
      <path class="cls-16" d="M126.52,173.11s-5.38,10.99.33,14.29"/>
      <path class="cls-16" d="M117.25,183.66c-.44-5.56,9.27-10.55,9.27-10.55,0,0-5.38,10.99.33,14.29"/>
    </g>
    <path class="cls-15" d="M129.56,173.03c-.61,1.96-.53,1.53-2.48,1.69-1.94.15-3.69.49-3.85-1.56s.39-3.38,2.33-3.54c1.94-.15,4.59,1.5,4,3.41Z"/>
  </g>
  <path class="cls-5" d="M9.24,109.99c-4.5,19.31,23.17,24.17,29.91,34.35,6.06,9.16,1.56-16.51-13.23-26.52-14.46-9.79-15.62-12.37-16.68-7.83Z"/>
  <path class="cls-15" d="M31.58,122.05c-2.17,5-12.28,11.35-15.41,13.9-3.44,2.8,1.98,6.21,3.92,2.37,2.41-4.77,14.96-8.47,17.18-10.47,3.02-2.73-3.4-11.09-5.7-5.79Z"/>
  <path class="cls-15" d="M147.05,148.92c.71,11.54,20.02,24.89,27.94,26.45,9.79,1.93-2.11,16.01-9.91,9.66-13.1-10.64-22.34-23.31-22.83-32.3-.2-3.61,4.57-7.65,4.8-3.81Z"/>
  <path class="cls-14" d="M134.51,146.98c9.33,8.52,32.69,18.71,40.46,14.73,8.22-4.21,15.06,13.57,4.53,14.35-11.57.86-26.51-10.38-32.84-14.63-13.67-9.17-15.23-17.26-12.16-14.45Z"/>
  <path class="cls-14" d="M128.55,10.89c29.8,9.61,44.63,26.25,50.41,49.5,5.78,23.25,1.89,37.61-3.14,51.7-5.71,16-1.3,46.02-44.83,46.44-24.7.24-95.62-22.98-101.79-50.71-7.58-34.04,14.33-73.07,32.54-86.69,15.22-11.38,40.6-18.69,66.8-10.24Z"/>
  <path class="cls-4" d="M122.84,62.99c-1.46-.65-3.08-.66-4.69-.03-2.43.96-4.72,3.37-5.96,6.32-3.17,7.47,1.23,10.32,3.27,11.19,1.25.54,2.49.75,3.66.64.65-.06,1.28-.22,1.89-.49,1.92-.84,3.42-2.63,4.33-5.19,1.69-4.73,1.38-10.69-2.5-12.43Z"/>
  <path class="cls-4" d="M62.57,43.89c-.47-1.32-1.23-3.02-2.49-3.49-3.36-1.23-7.29,1.72-9.34,6.1-2,4.26-1.31,8.16,1.71,9.72,1.32.68,2.47.89,3.46.8,2.77-.26,4.34-2.9,5.12-4.22,1.14-1.91,2.56-6.01,1.53-8.91Z"/>
  <path class="cls-12" d="M67.46,55.97c9.24-3.44,26.2,5.4,27.81,14.62.67,3.84-3.69,5.78-7.17,7.85-10.61,6.31-15.87,8.74-22.4,5.67-6.08-2.86-6.67-18.1-1.09-25.09.96-1.2,1.69-2.61,2.85-3.04Z"/>
  <path class="cls-15" d="M70.18,60.86c-.49.99-.75,1.77-1.38,1.45-.63-.32-.74-1.37-.25-2.36.49-.99,1.41-1.53,2.04-1.21.63.32.08,1.13-.41,2.12Z"/>
  <path class="cls-15" d="M83.74,66.21c-.51.98-1.66,1.38-2.58.91-.92-.48-.46-.99.05-1.97.51-.98.88-2.05,1.79-1.57.92.48,1.25,1.66.74,2.63Z"/>
  <path class="cls-7" d="M65.53,116.36c-.04-.11-.08-.21-.15-.31-.33-.88-1.31-3.55-4.18-11.57-2.76-7.7-5.6-15.28-11.6-22.46-6.21-7.43-15.43-14.28-16.18-20.21-.09-.71-.65-1.26-1.36-1.33-.71-.08-1.37.35-1.6,1.03-9.6,28.13-6.18,31.86-4.34,33.86.09.1.18.18.2.2.27,12.65.86,2.31,36.63,22.41.32.51.66.73,1.16.68.16-.02.34-.06.54-.13.15-.05,1.42-.54.88-2.16Z"/>
  <path class="cls-7" d="M182.33,101.21c-.54-5.35-32.06.85-54.61-.93-48.75-3.84-41.85-10.56-65.39-6.89-16.23,2.54-28.25,21.14-28.59,21.59-.4.53-.5,1.23-.29,1.85.22.63.73,1.1,1.38,1.27,0,0,104.65,28.4,109.03,30.41s12.63,4.93,15.56,1.76c2.94-3.17.13-12.33,6.21-19.89,6.08-7.57,17.21-24.16,16.71-29.18Z"/>
  <path class="cls-7" d="M151.7,166.54c-2.58-10.88,5.96-17.69,5.96-17.69l-26.63-5.46c-9.08-2.77-29.34-5.46-54.99-15.31-11.18-4.3-32.91-15.78-38.29-19.12-1.16-.72-2.56-1.79-4.04-2.93-4.64-3.55-7.49-3.98-11.36-2.42-1.21.49-3.87,3.03-5.98,4.25-3.11,1.8-5.09-.73-6.59.04.1,1.36,3.07,7.68,6.64,8.82,6.99,2.23,12.39,8.95,15.76,21.83,1.08,4.11,2.83-.61,4.42-5.1.6,4.6,14.97,24.02,35.44,24.21,12.28.11,15.25,2.57,19.11,3.56,12.71,3.25,26.14,4.93,41.85,12.05,13.55,6.14,20.38.32,18.71-6.73Z"/>
  <path class="cls-1" d="M47.43,66.19c-3.01,2.71-8.64,2.21-12.57-1.1-3.93-3.32-4.68-8.2-1.67-10.91,3.01-2.71,8.64-2.21,12.57,1.1,3.93,3.32,4.68,8.2,1.67,10.91Z"/>
  <path class="cls-15" d="M26.14,121.26c-.22-1.15-.85-2.12-1.77-2.73-1.4-.93-3.29-.56-4.22.84-.69,1.03-.66,2.33-.05,3.31-.12.61-.48,1.54-1.01,2.68-.67-5.43-2.3-10.82-5.96-12.47-1.53-.69-3.33,0-4.02,1.53-.69,1.53,0,3.33,1.53,4.02.01,0,1.26.81,2.09,5.8-2.17-2.07-5.15-3.51-9.69-3.51h0c-1.68,0-3.04,1.36-3.04,3.04,0,1.68,1.36,3.04,3.04,3.04,5.04,0,6.4,2.23,9,7.28.55,1.07,1.12,2.17,1.77,3.3.01.02.03.04.05.06.12.2.27.39.43.56.03.03.06.05.09.08.15.14.32.27.5.38.03.02.07.04.1.06.16.09.33.17.51.22.04.01.08.02.12.03.05.01.1.02.15.04.23.05.46.09.68.09,0,0,0,0,0,0,.03,0,.06-.01.1-.01.22,0,.44-.03.65-.08.08-.02.15-.06.23-.09.17-.06.33-.12.49-.2.02-.01.04-.01.06-.03.15-.09.29-.2.42-.31.02-.02.04-.03.07-.05.18-.16.33-.33.46-.52,0-.01.02-.02.03-.04,7.02-10.21,7.52-14.61,7.19-16.32Z"/>
  <path class="cls-2" d="M136.94,97.43c-1.61,4.27-8.77,5.52-15.98,2.79-7.21-2.73-11.75-8.39-10.14-12.66,1.61-4.27,8.77-5.52,15.98-2.79,7.21,2.73,11.75,8.39,10.14,12.66Z"/>
  <path class="cls-3" d="M141.01,135.86c-38.83-3.38-84.15-22.7-94.97-28.9-12.04-6.9-19.53-10.78-19.92-11.6-1.32-2.74-4.29,5.4-2.94,7.08.73.91,9.08,8.97,21.76,15.8,10.81,5.82,52.82,26.09,96.18,28.15,13.41.63,8.24-9.81-.1-10.53Z"/>
  <path class="cls-8" d="M34.24,123.51s4.24,15.77,20.78,29.35c-6.36-2.96-19.76-5.51-23.36-15.78-.59-1.68,3.48-4.89,2.59-13.57Z"/>
  <path class="cls-8" d="M57.19,94.69s-8.27,2.78-13.63,8.08c1.9-3.96,12.29-11.53,12.5-10.59s1.14,2.51,1.14,2.51Z"/>
  <path class="cls-15" d="M147.25,103.94c19.11-4.36,40.04,7.59,48.42,20.65,2,3.12,6.29,10.93,3.62,14.84-3,4.39-14.2,13.47-31.37,15.21-7.06.72-9.92,1.92-22.22-2.86-6.36-2.47,1.11-19.72-2.04-25.26-6.59-11.61.84-21.96,3.58-22.59Z"/>
  <path class="cls-9" d="M160.37,101.1c-6.79-1.95-10.35-2.88-18.09,3.54-7.88,6.53-8.38,11.51-7.66,20.91.67,8.75,4.2,16.51,6.49,20.84,2.97,5.61,7.65,12.38,13.11,13.35,4.23.75,5.18-.48,16.22-.71,7.13-.14,10.05-1.55,11.14-3.53-5.09-11.49,2.92-20.05-.3-39.55-1.01-6.09,5.46-3.12-4.98-9.56-4.18-2.58-11.47-4-15.93-5.28Z"/>
  <path class="cls-6" d="M143.46,140.09s15.69,17.34,25.04,18.94c-6.63,2.3-5.56.7-12.13.49-1.78-.06-10.32-5.02-12.91-19.43Z"/>
</svg>